<?xml version="1.0" encoding="UTF-8"?>
<svg version="1.1" xmlns="http://www.w3.org/2000/svg" width="1024" height="1024">

<path d="M0 0 C1.0729129 -0.00067474 2.14582581 -0.00134949 3.25125122 -0.00204468 C19.32275454 0.01401137 35.01046939 0.44357099 50.875 3.25 C51.92042969 3.43224121 52.96585938 3.61448242 54.04296875 3.80224609 C104.96431366 12.90512092 153.97333694 32.75999262 193.875 66.25 C194.83535156 67.02601563 195.79570313 67.80203125 196.78515625 68.6015625 C215.27479955 83.76335251 232.71186498 101.25273167 245.875 121.25 C236.48548298 129.73519878 236.48548298 129.73519878 231.9375 133.6875 C228.70940488 136.49822525 225.53761557 139.365799 222.375 142.25 C213.37757126 150.44738378 204.12380815 158.33915145 194.875 166.25 C190.69741209 164.69192526 188.40535985 161.61158875 185.6875 158.25 C184.70293136 157.06158082 183.71724206 155.87408923 182.73046875 154.6875 C182.24497559 154.10097656 181.75948242 153.51445312 181.25927734 152.91015625 C170.97563692 140.57704251 159.63239424 129.0187142 146.875 119.25 C146.33182129 118.83041016 145.78864258 118.41082031 145.22900391 117.97851562 C114.87741815 94.65078913 78.7558687 77.71945019 40.875 71.25 C40.15779785 71.11609863 39.4405957 70.98219727 38.70166016 70.84423828 C13.25641479 66.18303426 -13.6948237 66.81604481 -39.125 71.25 C-39.96514648 71.39453613 -40.80529297 71.53907227 -41.67089844 71.68798828 C-74.93384931 77.60766598 -107.83208464 91.32158407 -135.125 111.25 C-135.94653564 111.84844727 -135.94653564 111.84844727 -136.78466797 112.45898438 C-152.97332233 124.36677752 -167.5853577 137.50778718 -180.125 153.25 C-180.75921875 154.00539063 -181.3934375 154.76078125 -182.046875 155.5390625 C-211.4237119 190.86410191 -226.94402214 234.19618924 -233.125 279.25 C-233.26965698 280.24435059 -233.26965698 280.24435059 -233.41723633 281.25878906 C-241.17235029 340.74969039 -222.09318225 401.83110438 -186.125 449 C-173.2844385 465.30710286 -159.75849998 479.78599962 -143.125 492.25 C-141.89317722 493.18873392 -140.66140677 494.12753651 -139.4296875 495.06640625 C-99.20215914 525.43971673 -49.82931098 541.77450065 0.5 541.5625 C1.37796234 541.56100952 2.25592468 541.55951904 3.16049194 541.5579834 C16.61231318 541.51699273 29.64742019 540.85639252 42.875 538.25 C43.6911377 538.10014648 44.50727539 537.95029297 45.34814453 537.79589844 C56.46084892 535.75093506 67.19792374 532.93780594 77.875 529.25 C78.5040625 529.03649902 79.133125 528.82299805 79.78125 528.60302734 C113.26342033 517.11926042 141.93149815 497.92452105 167.75 474.0625 C168.65963501 473.2257373 168.65963501 473.2257373 169.58764648 472.37207031 C188.23037359 454.9288821 203.20425319 432.32749341 213.93505859 409.265625 C214.57217122 407.89939075 215.21865042 406.53749253 215.87353516 405.1796875 C229.63827899 376.63644061 235.63413102 346.11050593 236.4375 314.625 C236.48078915 313.03254306 236.52440637 311.440095 236.56835938 309.84765625 C236.6743542 305.98186282 236.77591325 302.11597641 236.875 298.25 C250.31038604 295.769384 263.7590937 293.36127751 277.21289062 290.98269653 C279.02679649 290.66134182 280.8404378 290.33849011 282.65380859 290.01412964 C285.23854771 289.55217664 287.82421058 289.09576879 290.41015625 288.640625 C291.18960098 288.50018265 291.96904572 288.3597403 292.77210999 288.21504211 C296.51305667 287.56248751 300.07446693 287.08240558 303.875 287.25 C303.92643602 293.63220711 303.96103602 300.01435927 303.98486328 306.39672852 C303.99481452 308.56016029 304.00838034 310.723579 304.02587891 312.88696289 C304.12797843 325.85059996 303.78526194 338.42185637 301.875 351.25 C301.7394873 352.27488525 301.60397461 353.29977051 301.46435547 354.35571289 C291.84410585 426.04829567 251.15135243 498.47087234 193.7109375 543.09765625 C192.77507812 543.80792969 191.83921875 544.51820313 190.875 545.25 C189.61591285 546.24709045 188.35821308 547.2459342 187.1015625 548.24609375 C165.51322847 565.2842947 141.43560779 579.06706443 115.875 589.25 C115.17052734 589.53149902 114.46605469 589.81299805 113.74023438 590.10302734 C94.08239825 597.85656806 73.73728744 603.83746377 52.875 607.25 C51.60994629 607.47429687 51.60994629 607.47429687 50.31933594 607.703125 C15.32408437 613.71044898 -23.46107039 612.88138979 -58.125 605.25 C-59.09291473 605.03926849 -59.09291473 605.03926849 -60.0803833 604.82427979 C-107.04590704 594.53708838 -152.12341014 574.22257681 -189.125 543.25 C-190.64480469 541.98929688 -190.64480469 541.98929688 -192.1953125 540.703125 C-208.60610033 527.01685136 -224.26576962 512.40346242 -237.125 495.25 C-237.62322266 494.59725098 -238.12144531 493.94450195 -238.63476562 493.27197266 C-247.22261066 482.00723591 -255.0163321 470.49886481 -262.125 458.25 C-262.75849365 457.17830566 -262.75849365 457.17830566 -263.40478516 456.08496094 C-298.40270811 396.73773393 -310.8086714 322.11097935 -299.125 254.25 C-298.98578125 253.39696289 -298.8465625 252.54392578 -298.703125 251.66503906 C-290.08750989 199.95140487 -267.52675829 152.20082901 -235.125 111.25 C-234.6913916 110.69924805 -234.2577832 110.14849609 -233.81103516 109.58105469 C-226.96944487 100.99867413 -219.2906029 93.21337905 -211.5625 85.4375 C-211.07953461 84.94917694 -210.59656921 84.46085388 -210.09896851 83.95773315 C-203.45503469 77.25796678 -196.50746666 71.12691492 -189.125 65.25 C-187.66441233 64.02351296 -186.20571895 62.79476179 -184.75 61.5625 C-171.5670428 51.06651497 -157.01005779 42.11008376 -142.125 34.25 C-141.21766113 33.76055908 -141.21766113 33.76055908 -140.29199219 33.26123047 C-96.97007762 9.98292171 -48.84785431 0.02756308 0 0 Z " fill="#EEEEEE" transform="translate(511.125,205.75)"/>
<path d="M0 0 C0.99 0.33 1.98 0.66 3 1 C3 21.46 3 41.92 3 63 C2.67 63 2.34 63 2 63 C-0.21901732 49.48075581 -0.23511204 36.16843668 -0.125 22.5 C-0.11494323 20.30859787 -0.10582218 18.11719124 -0.09765625 15.92578125 C-0.07587242 10.61708737 -0.04261153 5.30856548 0 0 Z " fill="#F7F7F6" transform="translate(274,483)"/>
<path d="M0 0 C0.33 0 0.66 0 1 0 C1.33 15.18 1.66 30.36 2 46 C1.01 46.495 1.01 46.495 0 47 C-0.91354437 41.5631863 -1.14651132 36.3277152 -1.1328125 30.8203125 C-1.13376923 29.96694305 -1.13472595 29.11357361 -1.13571167 28.23434448 C-1.13638835 26.44431484 -1.13457 24.65428266 -1.13037109 22.86425781 C-1.12497564 20.11257519 -1.13035366 17.36105286 -1.13671875 14.609375 C-1.13605866 12.86718714 -1.13477892 11.12499938 -1.1328125 9.3828125 C-1.13483673 8.55685577 -1.13686096 7.73089905 -1.13894653 6.87991333 C-1.11497734 1.11497734 -1.11497734 1.11497734 0 0 Z " fill="#F8F8F8" transform="translate(210,493)"/>
<path d="M0 0 C0.66 0.99 1.32 1.98 2 3 C1.1875 4.9375 1.1875 4.9375 0 7 C-0.99 7.33 -1.98 7.66 -3 8 C-3.433125 9.3921875 -3.433125 9.3921875 -3.875 10.8125 C-5.19951997 14.56530658 -6.76808166 15.78868745 -10 18 C-10.66 16.02 -11.32 14.04 -12 12 C-11.67 11.67 -11.34 11.34 -11 11 C-11.33 10.34 -11.66 9.68 -12 9 C-11.01 8.01 -10.02 7.02 -9 6 C-8.67 6.66 -8.34 7.32 -8 8 C-7.34 8 -6.68 8 -6 8 C-5.67 7.34 -5.34 6.68 -5 6 C-4.34 6.33 -3.68 6.66 -3 7 C-2.87625 6.21625 -2.7525 5.4325 -2.625 4.625 C-2 2 -2 2 0 0 Z " fill="#E8E8E8" transform="translate(724,722)"/>
<path d="M0 0 C2.18847656 0.35571289 2.18847656 0.35571289 4 1 C4 1.66 4 2.32 4 3 C4.66 3.33 5.32 3.66 6 4 C4.02 4.66 2.04 5.32 0 6 C-0.33 8.31 -0.66 10.62 -1 13 C-1.99 12.67 -2.98 12.34 -4 12 C-4.33 12.66 -4.66 13.32 -5 14 C-5 13.01 -5 12.02 -5 11 C-6.65 11.66 -8.3 12.32 -10 13 C-10.66 12.34 -11.32 11.68 -12 11 C-10.09692171 9.12983659 -8.17977121 7.27975833 -6.25 5.4375 C-5.71117187 4.90447266 -5.17234375 4.37144531 -4.6171875 3.82226562 C-3.015625 2.30859375 -3.015625 2.30859375 0 0 Z " fill="#161614" transform="translate(745,336)"/>
<path d="M0 0 C0.33 0 0.66 0 1 0 C1.33 4.29 1.66 8.58 2 13 C2.33 13 2.66 13 3 13 C3.02712325 15.87506421 3.04689851 18.74986908 3.0625 21.625 C3.07087891 22.43324219 3.07925781 23.24148438 3.08789062 24.07421875 C3.1058955 28.50341918 2.89622662 32.63883424 2 37 C-0.46105545 33.30841682 -0.25575793 30.53376446 -0.1953125 26.26953125 C-0.1924826 25.51911057 -0.18965271 24.76868988 -0.18673706 23.99552917 C-0.17555062 21.60102325 -0.15044928 19.20689269 -0.125 16.8125 C-0.11496819 15.18815645 -0.10584269 13.56380703 -0.09765625 11.93945312 C-0.07561637 7.959491 -0.0410974 3.97980912 0 0 Z " fill="#232322" transform="translate(276,494)"/>
<path d="M0 0 C0.66 0 1.32 0 2 0 C2 0.66 2 1.32 2 2 C2.66 2 3.32 2 4 2 C4 2.66 4 3.32 4 4 C4.9075 4.28875 5.815 4.5775 6.75 4.875 C9.32202908 5.76531776 11.61346766 6.71494413 14 8 C14 9.65 14 11.3 14 13 C15.32 12.67 16.64 12.34 18 12 C18 13.32 18 14.64 18 16 C18.99 16.33 19.98 16.66 21 17 C20.34 17.66 19.68 18.32 19 19 C12.16250703 14.07700506 5.52284426 8.36920221 0 2 C0 1.34 0 0.68 0 0 Z " fill="#181817" transform="translate(722,286)"/>
<path d="M0 0 C1 3 1 3 1 7 C0.34 7 -0.32 7 -1 7 C-1.625 5.1875 -1.625 5.1875 -2 3 C-1.34 2.01 -0.68 1.02 0 0 Z M-3 5 C-2.67 5.66 -2.34 6.32 -2 7 C-2.33 7.66 -2.66 8.32 -3 9 C-2.34 9.33 -1.68 9.66 -1 10 C-1.45375 10.37125 -1.9075 10.7425 -2.375 11.125 C-4.237302 13.01482823 -4.237302 13.01482823 -4.9375 16.125 C-6 19 -6 19 -7.875 19.875 C-9.9135679 19.99491576 -11.95790821 20 -14 20 C-13.62488281 19.50371094 -13.24976563 19.00742187 -12.86328125 18.49609375 C-9.50836081 14.04258476 -6.22288764 9.54995902 -3 5 Z " fill="#181817" transform="translate(764,682)"/>
<path d="M0 0 C-0.99 0.33 -1.98 0.66 -3 1 C-3 1.66 -3 2.32 -3 3 C-3.66 3 -4.32 3 -5 3 C-5 3.66 -5 4.32 -5 5 C-6.0725 5.12375 -7.145 5.2475 -8.25 5.375 C-11.84214766 5.74905526 -11.84214766 5.74905526 -14.0625 7.1875 C-17.06933899 8.44843248 -19.10118419 7.18587919 -22 6 C-18.51134231 3.6742282 -14.96055189 2.54929156 -11 1.3125 C-9.91332031 0.95575195 -9.91332031 0.95575195 -8.8046875 0.59179688 C-3.36149591 -1.12049864 -3.36149591 -1.12049864 0 0 Z " fill="#E4E4E4" transform="translate(595,735)"/>
<path d="M0 0 C0.33 0 0.66 0 1 0 C1.33 14.52 1.66 29.04 2 44 C1.34 44 0.68 44 0 44 C-0.33 45.32 -0.66 46.64 -1 48 C-1.17952909 31.98201607 -0.62237333 16.00459508 0 0 Z " fill="#292929" transform="translate(208,496)"/>
<path d="M0 0 C1 3 1 3 1 5 C2.32 5 3.64 5 5 5 C5 5.66 5 6.32 5 7 C5.66 7 6.32 7 7 7 C7.2475 7.969375 7.495 8.93875 7.75 9.9375 C8.1625 10.948125 8.575 11.95875 9 13 C11.03243548 13.96877057 11.03243548 13.96877057 13 14 C13 14.66 13 15.32 13 16 C13.99 16 14.98 16 16 16 C15.67 16.66 15.34 17.32 15 18 C12 18 12 18 10.19067383 16.53125 C9.53607178 15.8609375 8.88146973 15.190625 8.20703125 14.5 C7.49482422 13.778125 6.78261719 13.05625 6.04882812 12.3125 C5.31083984 11.549375 4.57285156 10.78625 3.8125 10 C2.68811523 8.8553125 2.68811523 8.8553125 1.54101562 7.6875 C-0.31286823 5.79819161 -2.15941069 3.90224794 -4 2 C-2.68 1.34 -1.36 0.68 0 0 Z " fill="#212121" transform="translate(341,669)"/>
<path d="M0 0 C0.33 0 0.66 0 1 0 C1.33 8.91 1.66 17.82 2 27 C2.33 27 2.66 27 3 27 C3 32.61 3 38.22 3 44 C-0.375 39.5 -0.375 39.5 -0.34057617 35.87402344 C-0.34034958 35.07349548 -0.34012299 34.27296753 -0.33988953 33.44818115 C-0.32440567 32.59387512 -0.30892181 31.73956909 -0.29296875 30.859375 C-0.28872391 29.97719299 -0.28447906 29.09501099 -0.28010559 28.18609619 C-0.26333838 25.37375117 -0.22568998 22.56212774 -0.1875 19.75 C-0.17245062 17.8411562 -0.15876266 15.93230114 -0.14648438 14.0234375 C-0.11344127 9.34868111 -0.06167255 4.67446282 0 0 Z " fill="#E6E6E6" transform="translate(812,496)"/>
<path d="M0 0 C1.5631897 0.00785522 1.5631897 0.00785522 3.15795898 0.01586914 C4.28266602 0.0190918 5.40737305 0.02231445 6.56616211 0.02563477 C7.75016602 0.03401367 8.93416992 0.04239258 10.15405273 0.05102539 C11.34192383 0.05553711 12.52979492 0.06004883 13.75366211 0.06469727 C16.69967499 0.07652864 19.64558954 0.09301252 22.59155273 0.11352539 C22.59155273 0.44352539 22.59155273 0.77352539 22.59155273 1.11352539 C21.6647168 1.17411133 20.73788086 1.23469727 19.78295898 1.29711914 C17.98665039 1.42280273 17.98665039 1.42280273 16.15405273 1.55102539 C14.9590918 1.63223633 13.76413086 1.71344727 12.53295898 1.79711914 C9.70585029 1.79008653 9.70585029 1.79008653 8.59155273 3.11352539 C6.95682392 3.20052881 5.31841218 3.22053602 3.68139648 3.21118164 C2.69204102 3.20795898 1.70268555 3.20473633 0.68334961 3.20141602 C-0.35756836 3.19303711 -1.39848633 3.1846582 -2.47094727 3.17602539 C-3.51573242 3.17151367 -4.56051758 3.16700195 -5.63696289 3.16235352 C-8.22751386 3.15052452 -10.81795285 3.13404228 -13.40844727 3.11352539 C-13.40844727 2.78352539 -13.40844727 2.45352539 -13.40844727 2.11352539 C-12.69817383 2.05293945 -11.98790039 1.99235352 -11.25610352 1.92993164 C-9.87745117 1.80424805 -9.87745117 1.80424805 -8.47094727 1.67602539 C-7.55442383 1.59481445 -6.63790039 1.51360352 -5.69360352 1.42993164 C-3.00036081 1.05702111 -2.75645337 0.12992913 0 0 Z " fill="#181816" transform="translate(505.408447265625,744.886474609375)"/>
<path d="M0 0 C4.14298667 0.59834725 7.18194377 2.00664285 10.8125 4.0625 C11.78832031 4.61035156 12.76414062 5.15820312 13.76953125 5.72265625 C14.50558594 6.14417969 15.24164063 6.56570313 16 7 C10.82466243 8.40234953 6.21422995 8.22687763 1 7 C1.020625 6.21625 1.04125 5.4325 1.0625 4.625 C1.18684063 2.01885039 1.18684063 2.01885039 0 0 Z " fill="#151515" transform="translate(360,776)"/>
<path d="M0 0 C1.19625 0.165 2.3925 0.33 3.625 0.5 C7.10548715 0.93970567 10.48771488 1.08780713 14 1 C13.67 1.99 13.34 2.98 13 4 C12.34 4 11.68 4 11 4 C11 4.66 11 5.32 11 6 C8.91549283 5.7168444 6.83241633 5.42314331 4.75 5.125 C3.00976562 4.88136719 3.00976562 4.88136719 1.234375 4.6328125 C-1.58193313 4.08179569 -3.55217557 3.44203518 -6 2 C-4.02 1.67 -2.04 1.34 0 1 C0 0.67 0 0.34 0 0 Z " fill="#161616" transform="translate(458,738)"/>
<path d="M0 0 C2.30240295 3.45360443 2.25691777 4.80499384 2.265625 8.875 C2.26820313 10.02484375 2.27078125 11.1746875 2.2734375 12.359375 C2.26570312 13.56078125 2.25796875 14.7621875 2.25 16 C2.25773438 17.20140625 2.26546875 18.4028125 2.2734375 19.640625 C2.27085937 20.79046875 2.26828125 21.9403125 2.265625 23.125 C2.26336914 24.17945313 2.26111328 25.23390625 2.25878906 26.3203125 C2 29 2 29 0 32 C0.01740234 30.45892578 0.01740234 30.45892578 0.03515625 28.88671875 C0.09040729 21.63655452 0.04052547 14.53992188 -0.87890625 7.33203125 C-1.01412052 4.72806611 -0.60601139 2.52729194 0 0 Z " fill="#030302" transform="translate(746,504)"/>
<path d="M0 0 C0 0.66 0 1.32 0 2 C0.66 2.33 1.32 2.66 2 3 C1.01 3 0.02 3 -1 3 C-1 3.66 -1 4.32 -1 5 C-7.625 5.25 -7.625 5.25 -11 3 C-14.19806665 2.5396236 -14.19806665 2.5396236 -17.6875 2.375 C-19.45673828 2.26285156 -19.45673828 2.26285156 -21.26171875 2.1484375 C-22.16535156 2.09945312 -23.06898438 2.05046875 -24 2 C-24 1.67 -24 1.34 -24 1 C-21.50018262 0.8301095 -19.00020399 0.66402047 -16.5 0.5 C-15.80390625 0.45230469 -15.1078125 0.40460938 -14.390625 0.35546875 C-9.58304475 0.04386633 -4.81771254 -0.04340282 0 0 Z " fill="#1B1B19" transform="translate(544,202)"/>
<path d="M0 0 C0.66 0.99 1.32 1.98 2 3 C1.125 5.6875 1.125 5.6875 0 8 C-0.66 8 -1.32 8 -2 8 C-2 8.99 -2 9.98 -2 11 C-2.66 11 -3.32 11 -4 11 C-4.66 12.32 -5.32 13.64 -6 15 C-6.66 14.01 -7.32 13.02 -8 12 C-7.1015625 9.30078125 -7.1015625 9.30078125 -5.625 6.3125 C-5.14289062 5.31863281 -4.66078125 4.32476563 -4.1640625 3.30078125 C-3.77992188 2.54152344 -3.39578125 1.78226563 -3 1 C-2.34 1.33 -1.68 1.66 -1 2 C-0.67 1.34 -0.34 0.68 0 0 Z " fill="#E7E7E6" transform="translate(734,601)"/>
<path d="M0 0 C9.59441508 0.46920411 18.6416621 1.94194229 28 4 C28 4.66 28 5.32 28 6 C21.8013731 5.34914418 15.65285702 4.55571781 9.5 3.5625 C8.69046875 3.44068359 7.8809375 3.31886719 7.046875 3.19335938 C5.01878502 2.86498575 3.00671238 2.44054925 1 2 C0.67 1.34 0.34 0.68 0 0 Z " fill="#212121" transform="translate(554,207)"/>
<path d="M0 0 C0.66 0 1.32 0 2 0 C2 2.31 2 4.62 2 7 C2.33 7 2.66 7 3 7 C3.26218749 10.14624993 3.24754367 11.61837017 1.5 14.3125 C0.7575 15.1478125 0.7575 15.1478125 0 16 C-0.66 15.67 -1.32 15.34 -2 15 C-1.47462276 9.9697924 -0.89405214 4.98114761 0 0 Z " fill="#E2E2E2" transform="translate(745,552)"/>
<path d="M0 0 C0.66 0 1.32 0 2 0 C2.33 1.32 2.66 2.64 3 4 C2.34 4 1.68 4 1 4 C1.22816406 4.61488281 1.45632813 5.22976563 1.69140625 5.86328125 C1.97886719 6.67152344 2.26632812 7.47976563 2.5625 8.3125 C2.85253906 9.11300781 3.14257812 9.91351563 3.44140625 10.73828125 C4 13 4 13 3 16 C1.96386967 14.76265016 0.94652198 13.50955363 -0.0625 12.25 C-0.63097656 11.55390625 -1.19945312 10.8578125 -1.78515625 10.140625 C-3 8 -3 8 -2.68359375 5.921875 C-2.45800781 5.28765625 -2.23242188 4.6534375 -2 4 C-2 3.01 -2 2.02 -2 1 C-1.34 1 -0.68 1 0 1 C0 0.67 0 0.34 0 0 Z " fill="#161616" transform="translate(749,305)"/>
<path d="M0 0 C4.51045941 2.46025059 8.18504423 5.60282037 12 9 C9 10 9 10 6 10 C6 9.34 6 8.68 6 8 C4.35 8 2.7 8 1 8 C-0.33541537 5.32916926 0 2.92701445 0 0 Z " fill="#161614" transform="translate(304,734)"/>
<path d="M0 0 C0.598125 0.165 1.19625 0.33 1.8125 0.5 C4.11344336 1.1114124 4.11344336 1.1114124 7 1 C6.61479436 3.53910197 6.29902057 4.72751123 4.37109375 6.484375 C3.73300781 6.90203125 3.09492187 7.3196875 2.4375 7.75 C1.79683594 8.17796875 1.15617188 8.6059375 0.49609375 9.046875 C-0.24447266 9.51867187 -0.24447266 9.51867187 -1 10 C-1.33 9.34 -1.66 8.68 -2 8 C-1 6 0 4 1 2 C0.67 1.34 0.34 0.68 0 0 Z " fill="#171717" transform="translate(657,690)"/>
<path d="M0 0 C1.11375 0.2475 1.11375 0.2475 2.25 0.5 C5.19006578 1.11925696 5.19006578 1.11925696 9 1 C8.67 1.66 8.34 2.32 8 3 C8.99 3 9.98 3 11 3 C10.67 4.32 10.34 5.64 10 7 C10.99 7.33 11.98 7.66 13 8 C12.67 8.66 12.34 9.32 12 10 C9.99426318 8.71656721 7.99563881 7.4239631 6 6.125 C5.42765625 5.76019531 4.8553125 5.39539063 4.265625 5.01953125 C2.80818084 4.06525233 1.39962775 3.03722413 0 2 C0 1.34 0 0.68 0 0 Z " fill="#161616" transform="translate(377,704)"/>
<path d="M0 0 C-0.5 1.9375 -0.5 1.9375 -2 4 C-4.69658452 4.68790422 -7.2017019 4.81946464 -10 5 C-10 5.33 -10 5.66 -10 6 C-12.64 6 -15.28 6 -18 6 C-14.87754953 3.91836635 -11.92965119 2.67424387 -8.4375 1.3125 C-7.28121094 0.85488281 -6.12492188 0.39726563 -4.93359375 -0.07421875 C-2 -1 -2 -1 0 0 Z " fill="#1F1F1F" transform="translate(634,793)"/>
<path d="M0 0 C-1 2 -1 2 -2 3 C-1.814375 3.61875 -1.62875 4.2375 -1.4375 4.875 C-1.293125 5.57625 -1.14875 6.2775 -1 7 C-1.99 8.485 -1.99 8.485 -3 10 C-3.99 10 -4.98 10 -6 10 C-6.33 7.03 -6.66 4.06 -7 1 C-4.53721199 -0.231394 -2.7204945 -0.07159196 0 0 Z " fill="#151515" transform="translate(727,608)"/>
<path d="M0 0 C-11.77386935 1.32663317 -11.77386935 1.32663317 -17 1 C-17.66 0.34 -18.32 -0.32 -19 -1 C-17.25215171 -1.36463732 -15.50159498 -1.7163078 -13.75 -2.0625 C-12.28820312 -2.35833984 -12.28820312 -2.35833984 -10.796875 -2.66015625 C-6.48337828 -3.18428225 -3.77042049 -2.01986812 0 0 Z " fill="#1C1C1A" transform="translate(480,279)"/>
<path d="M0 0 C0.99 0.33 1.98 0.66 3 1 C0.22095576 4.60246476 -2.74106442 7.82682588 -6 11 C-6.66 11.66 -7.32 12.32 -8 13 C-8.99 12.67 -9.98 12.34 -11 12 C-7.37 8.04 -3.74 4.08 0 0 Z " fill="#1A1A1A" transform="translate(343,344)"/>
<path d="M0 0 C0.99 0.495 0.99 0.495 2 1 C2 1.66 2 2.32 2 3 C2.8971875 2.505 2.8971875 2.505 3.8125 2 C6 1 6 1 9 1 C9 1.66 9 2.32 9 3 C9.66 3.66 10.32 4.32 11 5 C10.34 5 9.68 5 9 5 C9.33 5.99 9.66 6.98 10 8 C7.69 7.67 5.38 7.34 3 7 C3.33 6.01 3.66 5.02 4 4 C2.68 3.67 1.36 3.34 0 3 C0 2.01 0 1.02 0 0 Z " fill="#151514" transform="translate(584,208)"/>
<path d="M0 0 C2.1519437 3.22791555 2.20086443 4.28400809 2 8 C2.66 8 3.32 8 4 8 C3.67 10.97 3.34 13.94 3 17 C2.34 17 1.68 17 1 17 C-0.22517308 11.33357449 -0.09228867 5.76291482 0 0 Z " fill="#F8F8F8" transform="translate(211,541)"/>
<path d="M0 0 C1.59440475 3.18880951 0.90786761 5.70897992 0 9 C-0.99 9 -1.98 9 -3 9 C-3 8.34 -3 7.68 -3 7 C-3.99 7 -4.98 7 -6 7 C-6.33 7.99 -6.66 8.98 -7 10 C-7.33 9.01 -7.66 8.02 -8 7 C-5.72058766 3.58088149 -5.59525083 3.89881271 -2 3 C-1.34 2.01 -0.68 1.02 0 0 Z " fill="#F6F6F5" transform="translate(261,343)"/>
<path d="M0 0 C1.485 0.99 1.485 0.99 3 2 C3.99 2 4.98 2 6 2 C6.99 2.33 7.98 2.66 9 3 C9 4.32 9 5.64 9 7 C9.66 7 10.32 7 11 7 C11 7.66 11 8.32 11 9 C6.32894208 7.44298069 2.91294315 4.91552627 -1 2 C-0.67 1.34 -0.34 0.68 0 0 Z " fill="#E7E7E7" transform="translate(340,760)"/>
<path d="M0 0 C1.6875 1.75 1.6875 1.75 1.6875 3.75 C0.3675 4.08 -0.9525 4.41 -2.3125 4.75 C-1.9825 5.41 -1.6525 6.07 -1.3125 6.75 C-2.3025 7.08 -3.2925 7.41 -4.3125 7.75 C-4.6425 6.1 -4.9725 4.45 -5.3125 2.75 C-6.3025 3.245 -6.3025 3.245 -7.3125 3.75 C-7.3125 2.76 -7.3125 1.77 -7.3125 0.75 C-2.91053233 -1.57326072 -2.91053233 -1.57326072 0 0 Z " fill="#1A1A19" transform="translate(688.3125,352.25)"/>
<path d="M0 0 C-0.99 0.495 -0.99 0.495 -2 1 C-1.34 2.32 -0.68 3.64 0 5 C-5.94 3.515 -5.94 3.515 -12 2 C-9.67178678 -2.65642643 -4.2230553 -0.62307373 0 0 Z " fill="#DFDFDD" transform="translate(431,800)"/>
<path d="M0 0 C0.33 0.66 0.66 1.32 1 2 C1.66 2.33 2.32 2.66 3 3 C-1.455 6.96 -1.455 6.96 -6 11 C-6.33 10.01 -6.66 9.02 -7 8 C-6.34 8 -5.68 8 -5 8 C-3.98888907 4.95086772 -3.98888907 4.95086772 -5 2 C-3.35 1.34 -1.7 0.68 0 0 Z " fill="#DFDFDF" transform="translate(711,738)"/>
<path d="M0 0 C2 2 2 2 2.1875 4.5625 C2 7 2 7 1 8 C1.020625 8.969375 1.04125 9.93875 1.0625 10.9375 C1 14 1 14 -1 16 C-2.08360869 9.93179132 -1.79074734 5.89893243 0 0 Z " fill="#191919" transform="translate(285,444)"/>
<path d="M0 0 C1.65 0 3.3 0 5 0 C5 0.66 5 1.32 5 2 C5.66 2 6.32 2 7 2 C7.33 1.34 7.66 0.68 8 0 C8.33 0.66 8.66 1.32 9 2 C8.01 3.485 8.01 3.485 7 5 C6.34 5 5.68 5 5 5 C4.67 5.66 4.34 6.32 4 7 C2 5.75 2 5.75 0 4 C0 2.68 0 1.36 0 0 Z " fill="#E6E6E6" transform="translate(607,289)"/>
<path d="M0 0 C-3.33189998 3.33189998 -6.57108046 4.62211392 -11 6 C-11.66 5.34 -12.32 4.68 -13 4 C-12.01 4 -11.02 4 -10 4 C-9.773125 3.360625 -9.54625 2.72125 -9.3125 2.0625 C-8 0 -8 0 -5.5625 -0.8125 C-3 -1 -3 -1 0 0 Z " fill="#171717" transform="translate(399,225)"/>
<path d="M0 0 C1.75 0.0625 1.75 0.0625 4 1 C5.78244292 3.15709652 7.08641064 5.3517473 8 8 C7.25 10.4375 7.25 10.4375 6 12 C5.34 12 4.68 12 4 12 C3.87625 10.88625 3.7525 9.7725 3.625 8.625 C3.3534187 4.96896323 3.3534187 4.96896323 1 3 C0.67 2.01 0.34 1.02 0 0 Z " fill="#161615" transform="translate(248,667)"/>
<path d="M0 0 C0.99 0.33 1.98 0.66 3 1 C-0.3 4.3 -3.6 7.6 -7 11 C-8 8 -8 8 -7.375 6 C-5.6328697 3.46599228 -3.68251454 2.44443091 -1 1 C-0.67 0.67 -0.34 0.34 0 0 Z " fill="#262626" transform="translate(302,286)"/>
<path d="M0 0 C5.06316683 -0.15639125 9.50398438 0.37233929 14.4375 1.5 C15.67371094 1.7784375 16.90992188 2.056875 18.18359375 2.34375 C19.57771484 2.66859375 19.57771484 2.66859375 21 3 C21 3.33 21 3.66 21 4 C13.20745184 4.25364533 6.68393723 4.45595815 0 0 Z " fill="#070707" transform="translate(446,810)"/>
<path d="M0 0 C0.33 0.99 0.66 1.98 1 3 C1.99 3.33 2.98 3.66 4 4 C4.33 4.99 4.66 5.98 5 7 C3.02 7.99 1.04 8.98 -1 10 C-0.67 9.01 -0.34 8.02 0 7 C-0.474375 6.54625 -0.94875 6.0925 -1.4375 5.625 C-3 4 -3 4 -4 2 C-2.68 1.34 -1.36 0.68 0 0 Z " fill="#191918" transform="translate(636,704)"/>
<path d="M0 0 C0.99 0.99 1.98 1.98 3 3 C1.56070877 5.97453521 0.33110493 7.66889507 -2 10 C-2.99 9.01 -3.98 8.02 -5 7 C-3.35 4.69 -1.7 2.38 0 0 Z " fill="#E6E6E6" transform="translate(707,646)"/>
<path d="M0 0 C0.66 0.66 1.32 1.32 2 2 C-2.62 2.66 -7.24 3.32 -12 4 C-12 3.34 -12 2.68 -12 2 C-8.01073455 -0.6595103 -4.60754647 -1.74769004 0 0 Z " fill="#1B1B1B" transform="translate(780,497)"/>
<path d="M0 0 C1.79068573 2.6860286 2.66055791 4.6626589 3.625 7.6875 C3.88539063 8.49574219 4.14578125 9.30398438 4.4140625 10.13671875 C4.60742188 10.75160156 4.80078125 11.36648438 5 12 C1.1640625 11.203125 1.1640625 11.203125 -0.3125 9.375 C-1.27383682 6.05401826 -0.64496692 3.35382798 0 0 Z " fill="#1A1A19" transform="translate(227,617)"/>
<path d="M0 0 C0.99 0 1.98 0 3 0 C3 0.66 3 1.32 3 2 C3.99 2 4.98 2 6 2 C6 3.32 6 4.64 6 6 C6.31151288 8.33634657 6.64159778 10.67038557 7 13 C3.67006966 9.17058011 1.94675475 4.62477778 0 0 Z " fill="#191919" transform="translate(296,608)"/>
<path d="M0 0 C0.33 0.66 0.66 1.32 1 2 C1.66 2 2.32 2 3 2 C3.75 4.25 3.75 4.25 4 7 C2.0625 9.3125 2.0625 9.3125 0 11 C-1.05404945 7.01803543 -0.84098656 4.01804691 0 0 Z " fill="#1A1A1A" transform="translate(281,460)"/>
<path d="M0 0 C-0.33 0.66 -0.66 1.32 -1 2 C-0.34 2.33 0.32 2.66 1 3 C-0.65 3.66 -2.3 4.32 -4 5 C-4 4.34 -4 3.68 -4 3 C-6.97 2.505 -6.97 2.505 -10 2 C-3.72972973 -1.24324324 -3.72972973 -1.24324324 0 0 Z " fill="#1C1C1C" transform="translate(449,283)"/>
<path d="M0 0 C-1.31224548 3.93673644 -2.91910327 6.22719294 -6 9 C-6.33 8.01 -6.66 7.02 -7 6 C-7.66 5.34 -8.32 4.68 -9 4 C-2.25 0 -2.25 0 0 0 Z " fill="#E8E8E8" transform="translate(360,246)"/>
<path d="M0 0 C0.66 -0.33 1.32 -0.66 2 -1 C1.67 0.32 1.34 1.64 1 3 C-1.07553648 3.5534764 -2.84365964 4 -5 4 C-5.99 4.495 -5.99 4.495 -7 5 C-7.66 4.67 -8.32 4.34 -9 4 C-9 3.34 -9 2.68 -9 2 C-3.375 -1.125 -3.375 -1.125 0 0 Z " fill="#E5E5E5" transform="translate(370,242)"/>
<path d="M0 0 C3.07531556 0.33246655 4.61832506 0.63104756 6.875 2.8125 C8 5 8 5 7.6875 7.25 C7.460625 7.8275 7.23375 8.405 7 9 C6.67 8.34 6.34 7.68 6 7 C5.34 7 4.68 7 4 7 C3.896875 6.360625 3.79375 5.72125 3.6875 5.0625 C3.460625 4.381875 3.23375 3.70125 3 3 C2.01 2.67 1.02 2.34 0 2 C0 1.34 0 0.68 0 0 Z " fill="#E8E8E7" transform="translate(319,652)"/>
<path d="M0 0 C0.33 0.66 0.66 1.32 1 2 C-0.0725 2.144375 -1.145 2.28875 -2.25 2.4375 C-4.91662949 2.83749442 -7.41399729 3.27591924 -10 4 C-10 3.34 -10 2.68 -10 2 C-11.32 1.67 -12.64 1.34 -14 1 C-9.23692563 0.04738513 -4.8333472 -0.08333357 0 0 Z " fill="#E2E2E2" transform="translate(476,208)"/>
<path d="M0 0 C2.76276177 0.52268466 5.3260876 1.10869587 8 2 C8 2.66 8 3.32 8 4 C9.98 4 11.96 4 14 4 C14 4.33 14 4.66 14 5 C8.72 4.67 3.44 4.34 -2 4 C-0.68 3.34 0.64 2.68 2 2 C1.34 1.34 0.68 0.68 0 0 Z " fill="#C9C9C9" transform="translate(480,811)"/>
<path d="M0 0 C0.33 0.66 0.66 1.32 1 2 C1.66 2.33 2.32 2.66 3 3 C2.01 4.98 1.02 6.96 0 9 C-1.32 9 -2.64 9 -4 9 C-4 8.34 -4 7.68 -4 7 C-3.34 7 -2.68 7 -2 7 C-2 5.35 -2 3.7 -2 2 C-1.34 2 -0.68 2 0 2 C0 1.34 0 0.68 0 0 Z " fill="#E6E6E6" transform="translate(780,649)"/>
<path d="M0 0 C0.33 0 0.66 0 1 0 C1.16987681 1.87471188 1.33574776 3.74978695 1.5 5.625 C1.5928125 6.66914062 1.685625 7.71328125 1.78125 8.7890625 C1.99124355 11.87146788 2.03709727 14.91165229 2 18 C1.01 17.34 0.02 16.68 -1 16 C-1.05632424 13.19564589 -0.95814702 10.64853322 -0.6875 7.875 C-0.62626953 7.12089844 -0.56503906 6.36679687 -0.50195312 5.58984375 C-0.3485467 3.72536562 -0.17606541 1.86247502 0 0 Z " fill="#1B1B1B" transform="translate(814,540)"/>
<path d="M0 0 C2.38564077 0.57584432 4.66682784 1.22227595 7 2 C8.6875 5.0625 8.6875 5.0625 10 8 C7 8 7 8 5.17578125 6.50390625 C4.56089844 5.86324219 3.94601562 5.22257813 3.3125 4.5625 C2.68988281 3.92441406 2.06726563 3.28632812 1.42578125 2.62890625 C0 1 0 1 0 0 Z " fill="#D7D7D7" transform="translate(293,722)"/>
<path d="M0 0 C0.99 0.33 1.98 0.66 3 1 C3 2.65 3 4.3 3 6 C2.01 6.33 1.02 6.66 0 7 C0 7.66 0 8.32 0 9 C-0.66 9 -1.32 9 -2 9 C-1.34 6.03 -0.68 3.06 0 0 Z " fill="#1A1A18" transform="translate(804,596)"/>
<path d="M0 0 C0.66 0 1.32 0 2 0 C2 3.96 2 7.92 2 12 C1.01 11.67 0.02 11.34 -1 11 C-1.125 3.375 -1.125 3.375 0 0 Z " fill="#191919" transform="translate(209,464)"/>
<path d="M0 0 C0.66 0.33 1.32 0.66 2 1 C1.45730469 1.47050781 0.91460938 1.94101562 0.35546875 2.42578125 C-0.71767578 3.35970703 -0.71767578 3.35970703 -1.8125 4.3125 C-2.52019531 4.92738281 -3.22789062 5.54226563 -3.95703125 6.17578125 C-5.70136739 7.73334335 -7.36778041 9.32658875 -9 11 C-9.66 10.67 -10.32 10.34 -11 10 C-11 9.34 -11 8.68 -11 8 C-9.34634594 6.97862543 -7.67623498 5.98387706 -6 5 C-3.94370129 3.39156026 -1.97987481 1.70361321 0 0 Z " fill="#060605" transform="translate(714,364)"/>
<path d="M0 0 C0.66 0 1.32 0 2 0 C1.52379711 4.37653129 0.33100111 6.06538005 -3.0625 8.8125 C-3.79597656 9.41707031 -4.52945313 10.02164062 -5.28515625 10.64453125 C-5.85105469 11.09183594 -6.41695312 11.53914063 -7 12 C-7.66 11.67 -8.32 11.34 -9 11 C-8.3503125 10.37351562 -7.700625 9.74703125 -7.03125 9.1015625 C-6.1959375 8.28429687 -5.360625 7.46703125 -4.5 6.625 C-3.6646875 5.81289063 -2.829375 5.00078125 -1.96875 4.1640625 C0.22431286 2.2410341 0.22431286 2.2410341 0 0 Z " fill="#F5F5F5" transform="translate(748,329)"/>
<path d="M0 0 C0.66 0 1.32 0 2 0 C2.65234375 1.765625 2.65234375 1.765625 3 4 C2.00390625 5.921875 2.00390625 5.921875 0.5625 7.75 C0.08941406 8.36359375 -0.38367188 8.9771875 -0.87109375 9.609375 C-1.24363281 10.06828125 -1.61617188 10.5271875 -2 11 C-2.66 10.01 -3.32 9.02 -4 8 C-3 6 -3 6 -1 3 C-0.67 2.01 -0.34 1.02 0 0 Z " fill="#1C1C1A" transform="translate(265,325)"/>
<path d="M0 0 C4.40114397 0.50298788 6.71195019 2.08772731 10 5 C7.36660729 5.97533063 6.07651653 6.019574 3.3125 5.3125 C1 4 1 4 0.1875 1.875 C0.125625 1.25625 0.06375 0.6375 0 0 Z " fill="#181817" transform="translate(624,303)"/>
<path d="M0 0 C2.97550448 0.43543968 4.34019156 1.39961472 6.5625 3.375 C2.30683453 4.53563604 -1.1210078 4.13673392 -5.4375 3.375 C-3.68914727 1.16655445 -2.83074258 0.43549886 0 0 Z " fill="#DDDDDD" transform="translate(469.4375,809.625)"/>
<path d="M0 0 C0.33 0.66 0.66 1.32 1 2 C-2.33333333 2 -5.66666667 2 -9 2 C-9.33 1.34 -9.66 0.68 -10 0 C-6.24527715 -2.59942351 -4.03404839 -1.7929104 0 0 Z " fill="#E5E5E3" transform="translate(637,718)"/>
<path d="M0 0 C0.598125 0.33 1.19625 0.66 1.8125 1 C4.05386471 2.20787988 4.05386471 2.20787988 7 2 C9.1875 4.5 9.1875 4.5 11 7 C6.93112431 6.71612495 5.25917878 6.22537285 2.125 3.5 C0 1 0 1 0 0 Z " fill="#222221" transform="translate(281,714)"/>
<path d="M0 0 C0.66 1.32 1.32 2.64 2 4 C2.66 4 3.32 4 4 4 C3.625 5.9375 3.625 5.9375 3 8 C2.01 8.495 2.01 8.495 1 9 C-0.33333333 7.66666667 -1.66666667 6.33333333 -3 5 C-2.01 3.35 -1.02 1.7 0 0 Z " fill="#1C1C1A" transform="translate(771,671)"/>
<path d="M0 0 C1.65 0 3.3 0 5 0 C5.33 0.99 5.66 1.98 6 3 C2.37 3.33 -1.26 3.66 -5 4 C-5 3.34 -5 2.68 -5 2 C-3.35 1.67 -1.7 1.34 0 1 C0 0.67 0 0.34 0 0 Z " fill="#161614" transform="translate(809,490)"/>
<path d="M0 0 C0.33 0 0.66 0 1 0 C1.19294408 4.82360189 0.75747614 8.49646738 -1 13 C-1.33 13 -1.66 13 -2 13 C-2.16682272 8.07872966 -2.24828052 4.49656104 0 0 Z " fill="#E8E8E8" transform="translate(211,481)"/>
<path d="M0 0 C0.80824219 0.28746094 1.61648438 0.57492187 2.44921875 0.87109375 C3.06410156 1.09925781 3.67898438 1.32742188 4.3125 1.5625 C3.9825 2.5525 3.6525 3.5425 3.3125 4.5625 C2.755625 4.253125 2.19875 3.94375 1.625 3.625 C-0.67553319 2.45592359 -0.67553319 2.45592359 -3.3125 2.0625 C-5.6875 1.5625 -5.6875 1.5625 -7.6875 -0.4375 C-4.20878379 -1.59707207 -3.34530355 -1.21206651 0 0 Z " fill="#161614" transform="translate(602.6875,291.4375)"/>
<path d="M0 0 C0.99 0.33 1.98 0.66 3 1 C2 4 2 4 0.25 5.25 C-2.52724898 6.17574966 -4.21571665 5.77341204 -7 5 C-6.67 4.34 -6.34 3.68 -6 3 C-4.68 3 -3.36 3 -2 3 C-2 2.34 -2 1.68 -2 1 C-1.34 0.67 -0.68 0.34 0 0 Z " fill="#191919" transform="translate(335,257)"/>
<path d="M0 0 C-2.36292656 2.52588702 -3.66462511 3.88820837 -7 5 C-7.66 3.68 -8.32 2.36 -9 1 C-2.25 -1.125 -2.25 -1.125 0 0 Z " fill="#1C1C1C" transform="translate(610,802)"/>
<path d="M0 0 C0.33 0.66 0.66 1.32 1 2 C-2.25 3.1875 -2.25 3.1875 -6 4 C-8.4375 2.625 -8.4375 2.625 -10 1 C-6.78548731 -0.60725635 -3.56387464 -0.05748185 0 0 Z " fill="#E5E5E5" transform="translate(392,785)"/>
<path d="M0 0 C-0.99 0.33 -1.98 0.66 -3 1 C-3 1.66 -3 2.32 -3 3 C-6.73487777 2.5020163 -8.81237635 2.12508244 -12 0 C-3.42857143 -1.28571429 -3.42857143 -1.28571429 0 0 Z " fill="#E0E0E0" transform="translate(553,746)"/>
<path d="M0 0 C-1.625 2.0625 -1.625 2.0625 -4 4 C-7.25 3.75 -7.25 3.75 -10 3 C-9.67 2.01 -9.34 1.02 -9 0 C-5.93109813 -1.53445094 -3.29905734 -0.54984289 0 0 Z " fill="#171717" transform="translate(577,737)"/>
<path d="M0 0 C1.98 0 3.96 0 6 0 C5.67 0.66 5.34 1.32 5 2 C4.34 2 3.68 2 3 2 C2.814375 3.2065625 2.814375 3.2065625 2.625 4.4375 C2.41875 5.283125 2.2125 6.12875 2 7 C1.01 7.495 1.01 7.495 0 8 C-0.66 6.02 -1.32 4.04 -2 2 C-1.34 2 -0.68 2 0 2 C0 1.34 0 0.68 0 0 Z " fill="#1B1B1A" transform="translate(666,684)"/>
<path d="M0 0 C0.66 0.33 1.32 0.66 2 1 C2 2.98 2 4.96 2 7 C-0.97 6.505 -0.97 6.505 -4 6 C-2.68 4.02 -1.36 2.04 0 0 Z " fill="#E4E4E4" transform="translate(699,657)"/>
<path d="M0 0 C2.56687367 3.8503105 1.83288724 5.58569763 1 10 C-0.32 9.67 -1.64 9.34 -3 9 C-2.01 6.03 -1.02 3.06 0 0 Z " fill="#161614" transform="translate(222,408)"/>
<path d="M0 0 C3.45201639 1.47721422 5.64961936 3.43794001 8.25 6.125 C8.95640625 6.84945313 9.6628125 7.57390625 10.390625 8.3203125 C11.18726563 9.15175781 11.18726563 9.15175781 12 10 C8.36694754 10 7.10272479 8.77258377 4.4296875 6.4453125 C2.51923255 4.51397826 1.23770566 2.40664989 0 0 Z " fill="#FAFAFA" transform="translate(719,286)"/>
<path d="M0 0 C2.64 0.66 5.28 1.32 8 2 C7.01 2.33 6.02 2.66 5 3 C5 3.66 5 4.32 5 5 C1 5 1 5 -2 4 C-2.33 3.34 -2.66 2.68 -3 2 C-2.01 2 -1.02 2 0 2 C0 1.34 0 0.68 0 0 Z " fill="#E3E3E1" transform="translate(598,217)"/>
<path d="M0 0 C0.66 0 1.32 0 2 0 C1.67 0.66 1.34 1.32 1 2 C0.67 1.34 0.34 0.68 0 0 Z M0 2 C0.66 2.66 1.32 3.32 2 4 C-1.96 5.98 -1.96 5.98 -6 8 C-6.99 7.34 -7.98 6.68 -9 6 C-6.03 4.68 -3.06 3.36 0 2 Z " fill="#E4E4E4" transform="translate(664,772)"/>
<path d="M0 0 C0 0.66 0 1.32 0 2 C-2.75924185 3.80411967 -3.88972103 4.0127245 -7.25 3.625 C-8.1575 3.41875 -9.065 3.2125 -10 3 C-10 2.34 -10 1.68 -10 1 C-6.56484998 0.37542727 -3.50935186 0 0 0 Z " fill="#E2E2E2" transform="translate(564,743)"/>
<path d="M0 0 C3.16115776 1.36983503 3.9927092 1.9890638 6 5 C5.625 7.6875 5.625 7.6875 5 10 C2.08772731 6.71195019 0.50298788 4.40114397 0 0 Z " fill="#161614" transform="translate(306,625)"/>
<path d="M0 0 C2.20914 3.31371 2.22481553 4.3446021 2.125 8.1875 C2.10695313 9.08855469 2.08890625 9.98960937 2.0703125 10.91796875 C2.03550781 11.94857422 2.03550781 11.94857422 2 13 C1.01 13.495 1.01 13.495 0 14 C-1.13016601 8.97703996 -0.77916092 5.02125926 0 0 Z " fill="#1F1F1F" transform="translate(812,557)"/>
<path d="M0 0 C0.66 0 1.32 0 2 0 C2 0.66 2 1.32 2 2 C2.66 2 3.32 2 4 2 C4 2.66 4 3.32 4 4 C4.639375 4.2475 5.27875 4.495 5.9375 4.75 C8 6 8 6 8.62890625 8.078125 C8.81259766 9.02945312 8.81259766 9.02945312 9 10 C7.86800647 9.0919838 6.74467637 8.17316174 5.625 7.25 C4.99851562 6.73953125 4.37203125 6.2290625 3.7265625 5.703125 C1.91687682 3.91800519 0.99882545 2.32050356 0 0 Z " fill="#272727" transform="translate(722,286)"/>
<path d="M0 0 C3.11227195 0 5.94152152 0.45627049 9 1 C8.34 2.32 7.68 3.64 7 5 C4.625 4.75 4.625 4.75 2 4 C0.6875 1.9375 0.6875 1.9375 0 0 Z " fill="#E8E8E8" transform="translate(689,265)"/>
<path d="M0 0 C1.32 0.66 2.64 1.32 4 2 C3.8125 3.875 3.8125 3.875 3 6 C0.4375 7.25 0.4375 7.25 -2 8 C-2.33 7.34 -2.66 6.68 -3 6 C-2.34 6 -1.68 6 -1 6 C-0.67 4.02 -0.34 2.04 0 0 Z " fill="#1A1A1A" transform="translate(357,240)"/>
<path d="M0 0 C3.5875213 1.33250791 6.8364623 2.830717 10 5 C10 5.66 10 6.32 10 7 C6.4124787 5.66749209 3.1635377 4.169283 0 2 C0 1.34 0 0.68 0 0 Z " fill="#0A0A09" transform="translate(344,766)"/>
<path d="M0 0 C0.66 0.33 1.32 0.66 2 1 C2 5 2 5 0 7.25 C-0.99 8.11625 -0.99 8.11625 -2 9 C-2.66 8.67 -3.32 8.34 -4 8 C-2.68 5.36 -1.36 2.72 0 0 Z " fill="#F4F4F4" transform="translate(732,716)"/>
<path d="M0 0 C2.97 1.98 2.97 1.98 6 4 C4.25 5.125 4.25 5.125 2 6 C-0.25 5.125 -0.25 5.125 -2 4 C-1.34 2.68 -0.68 1.36 0 0 Z " fill="#151515" transform="translate(258,682)"/>
<path d="M0 0 C0.66 0 1.32 0 2 0 C2 0.66 2 1.32 2 2 C3.32 2.33 4.64 2.66 6 3 C6 3.66 6 4.32 6 5 C6.99 5 7.98 5 9 5 C8.67 5.66 8.34 6.32 8 7 C5 7 5 7 2.3125 4.625 C0 2 0 2 0 0 Z " fill="#292929" transform="translate(348,680)"/>
<path d="M0 0 C1.32 0.33 2.64 0.66 4 1 C2.1875 4 2.1875 4 0 7 C-0.99 7 -1.98 7 -3 7 C-3 6.01 -3 5.02 -3 4 C-2.34 3.67 -1.68 3.34 -1 3 C-0.67 2.01 -0.34 1.02 0 0 Z " fill="#1B1B19" transform="translate(701,649)"/>
<path d="M0 0 C0.99 0 1.98 0 3 0 C2.30058404 3.14737182 1.23921302 6.02588876 0 9 C-0.33 8.34 -0.66 7.68 -1 7 C-1.66 6.67 -2.32 6.34 -3 6 C-2.01 4.02 -1.02 2.04 0 0 Z " fill="#181818" transform="translate(299,408)"/>
<path d="M0 0 C0.66 0 1.32 0 2 0 C3.38938077 1.96147874 4.7260411 3.96166576 6 6 C4.68 6.99 3.36 7.98 2 9 C1.34 6.03 0.68 3.06 0 0 Z " fill="#191918" transform="translate(698,366)"/>
<path d="M0 0 C0.66 0.33 1.32 0.66 2 1 C2.625 3.5625 2.625 3.5625 3 6 C1.125 6.625 1.125 6.625 -1 7 C-1.66 6.34 -2.32 5.68 -3 5 C-2.01 3.35 -1.02 1.7 0 0 Z " fill="#161616" transform="translate(717,361)"/>
<path d="M0 0 C-2.98646769 1.99097846 -5.59687262 2.94124926 -9 4 C-9 3.01 -9 2.02 -9 1 C-5.64919071 -1.10976881 -3.77897651 -1.0497157 0 0 Z " fill="#E6E6E4" transform="translate(426,289)"/>
<path d="M0 0 C0.763125 0.20625 1.52625 0.4125 2.3125 0.625 C-2.3125 4.625 -2.3125 4.625 -5.6875 4.625 C-5.6875 3.635 -5.6875 2.645 -5.6875 1.625 C-2.6875 -0.375 -2.6875 -0.375 0 0 Z " fill="#171716" transform="translate(344.6875,252.375)"/>
<path d="M0 0 C5.53846154 -0.36923077 5.53846154 -0.36923077 7.875 1.5 C8.24625 1.995 8.6175 2.49 9 3 C5.7807732 4.0730756 5.09793558 3.79946725 2 3 C1.01 3.495 1.01 3.495 0 4 C0 2.68 0 1.36 0 0 Z " fill="#E8E8E7" transform="translate(665,248)"/>
<path d="M0 0 C0.66 0.33 1.32 0.66 2 1 C2.625 4.0625 2.625 4.0625 3 7 C0.36 5.68 -2.28 4.36 -5 3 C-3.68 2.34 -2.36 1.68 -1 1 C-0.67 0.67 -0.34 0.34 0 0 Z " fill="#1C1C1C" transform="translate(669,242)"/>
<path d="M0 0 C-0.33 0.99 -0.66 1.98 -1 3 C-4.0625 4.1875 -4.0625 4.1875 -7 5 C-7.33 3.68 -7.66 2.36 -8 1 C-3.375 -1.125 -3.375 -1.125 0 0 Z " fill="#171715" transform="translate(408,221)"/>
<path d="M0 0 C2.64 1.65 5.28 3.3 8 5 C7.01 5.495 7.01 5.495 6 6 C5.67 6.66 5.34 7.32 5 8 C5 7.34 5 6.68 5 6 C4.38125 5.71125 3.7625 5.4225 3.125 5.125 C1 4 1 4 -1 2 C-0.67 1.34 -0.34 0.68 0 0 Z " fill="#E4E4E4" transform="translate(374,703)"/>
<path d="M0 0 C1.32 0 2.64 0 4 0 C3.67 2.31 3.34 4.62 3 7 C1.35 5.35 -0.3 3.7 -2 2 C-1.34 1.34 -0.68 0.68 0 0 Z " fill="#171717" transform="translate(330,658)"/>
<path d="M0 0 C0.66 0.66 1.32 1.32 2 2 C1.01 4.31 0.02 6.62 -1 9 C-1.33 8.34 -1.66 7.68 -2 7 C-2.66 7 -3.32 7 -4 7 C-3.67 5.35 -3.34 3.7 -3 2 C-2.34 2 -1.68 2 -1 2 C-0.67 1.34 -0.34 0.68 0 0 Z " fill="#E5E5E5" transform="translate(790,631)"/>
<path d="M0 0 C0.33 0.66 0.66 1.32 1 2 C-0.62324086 2.22162329 -2.248721 2.42689803 -3.875 2.625 C-5.23238281 2.79902344 -5.23238281 2.79902344 -6.6171875 2.9765625 C-7.40351562 2.98429687 -8.18984375 2.99203125 -9 3 C-9.66 2.34 -10.32 1.68 -11 1 C-7.26562152 0.12132271 -3.83225427 -0.08912219 0 0 Z " fill="#D8D8D8" transform="translate(763,502)"/>
<path d="M0 0 C1.90401138 1.90401138 2.93520439 3.33425686 3.19921875 6.046875 C3.1886578 8.03233273 3.09915043 10.0169914 3 12 C2.34 12 1.68 12 1 12 C-0.3271261 8.0186217 -0.06915913 4.14954773 0 0 Z " fill="#252525" transform="translate(278,476)"/>
<path d="M0 0 C1.65 0 3.3 0 5 0 C5.33 0.66 5.66 1.32 6 2 C4.68 2.33 3.36 2.66 2 3 C2 4.65 2 6.3 2 8 C1.01 8.33 0.02 8.66 -1 9 C-0.67 6.03 -0.34 3.06 0 0 Z " fill="#191919" transform="translate(365,324)"/>
<path d="M0 0 C0.66 0.99 1.32 1.98 2 3 C2.99 3.66 3.98 4.32 5 5 C5 5.99 5 6.98 5 8 C4.01 8.33 3.02 8.66 2 9 C0.93347808 6.69631264 -0.06421005 4.35981813 -1 2 C-0.67 1.34 -0.34 0.68 0 0 Z " fill="#191917" transform="translate(719,278)"/>
<path d="M0 0 C0.5775 0.20625 1.155 0.4125 1.75 0.625 C1.75 2.275 1.75 3.925 1.75 5.625 C-0.89 4.305 -3.53 2.985 -6.25 1.625 C-2.25 -0.375 -2.25 -0.375 0 0 Z " fill="#E5E5E5" transform="translate(365.25,773.375)"/>
<path d="M0 0 C0.66 0 1.32 0 2 0 C2.33 0.99 2.66 1.98 3 3 C2.01 2.67 1.02 2.34 0 2 C0 1.34 0 0.68 0 0 Z M-3 2 C-1.02 2.495 -1.02 2.495 1 3 C0.34 4.65 -0.32 6.3 -1 8 C-1.99 7.01 -2.98 6.02 -4 5 C-3.67 4.01 -3.34 3.02 -3 2 Z " fill="#E3E3E3" transform="translate(339,753)"/>
<path d="M0 0 C-3.20336822 2.83374881 -5.78087253 3.5205537 -10 4 C-9 1 -9 1 -6.6875 -0.25 C-3.90126985 -1.0275526 -2.66561622 -0.98726527 0 0 Z " fill="#E4E4E2" transform="translate(700,753)"/>
<path d="M0 0 C2.4375 1.1875 2.4375 1.1875 3.4375 3.1875 C1.7875 3.5175 0.1375 3.8475 -1.5625 4.1875 C-2.5525 2.8675 -3.5425 1.5475 -4.5625 0.1875 C-2.5625 -0.8125 -2.5625 -0.8125 0 0 Z " fill="#181817" transform="translate(319.5625,746.8125)"/>
<path d="M0 0 C-0.99 0.495 -0.99 0.495 -2 1 C-2 1.66 -2 2.32 -2 3 C-4.875 3.125 -4.875 3.125 -8 3 C-8.66 2.34 -9.32 1.68 -10 1 C-6.52674819 -0.1577506 -3.63932552 -0.06866652 0 0 Z " fill="#E8E8E8" transform="translate(476,745)"/>
<path d="M0 0 C2.0625 0.4375 2.0625 0.4375 4 1 C4 4 4 4 3 6 C2.34 6 1.68 6 1 6 C0.34 4.35 -0.32 2.7 -1 1 C-0.67 0.67 -0.34 0.34 0 0 Z " fill="#1B1B1A" transform="translate(273,702)"/>
<path d="M0 0 C3.21043882 1.38188453 5.04936365 2.92421903 7.25 5.625 C8.03117187 6.57246094 8.03117187 6.57246094 8.828125 7.5390625 C9.40820312 8.26222656 9.40820312 8.26222656 10 9 C4.98709528 7.56774151 3.01961382 5.05490999 0 1 C0 0.67 0 0.34 0 0 Z " fill="#FAFAFA" transform="translate(344,679)"/>
<path d="M0 0 C0.66 0.33 1.32 0.66 2 1 C1.34 3.31 0.68 5.62 0 8 C-0.99 8 -1.98 8 -3 8 C-3.33 7.34 -3.66 6.68 -4 6 C-3.01 6 -2.02 6 -1 6 C-1.309375 5.071875 -1.309375 5.071875 -1.625 4.125 C-1.810625 3.073125 -1.810625 3.073125 -2 2 C-1.34 1.34 -0.68 0.68 0 0 Z " fill="#1D1D1D" transform="translate(694,657)"/>
<path d="M0 0 C1.32 0.66 2.64 1.32 4 2 C3.01 3.98 2.02 5.96 1 8 C0.01 7.67 -0.98 7.34 -2 7 C-1.34 4.69 -0.68 2.38 0 0 Z " fill="#1B1B1B" transform="translate(794,625)"/>
<path d="M0 0 C0.33 0 0.66 0 1 0 C1.33 3.96 1.66 7.92 2 12 C1.34 12 0.68 12 0 12 C-1.28571429 3.42857143 -1.28571429 3.42857143 0 0 Z " fill="#2B2B2B" transform="translate(210,544)"/>
<path d="M0 0 C0.66 0 1.32 0 2 0 C1.34 2.31 0.68 4.62 0 7 C-1.32 6.34 -2.64 5.68 -4 5 C-3.67 4.01 -3.34 3.02 -3 2 C-2.01 2 -1.02 2 0 2 C0 1.34 0 0.68 0 0 Z " fill="#171715" transform="translate(291,433)"/>
<path d="M0 0 C0.66 0.66 1.32 1.32 2 2 C1.625 4.125 1.625 4.125 1 6 C0.01 6 -0.98 6 -2 6 C-2 2 -2 2 0 0 Z M-4 7 C-3.01 7.495 -3.01 7.495 -2 8 C-2.99 8.495 -2.99 8.495 -4 9 C-4 8.34 -4 7.68 -4 7 Z " fill="#070707" transform="translate(364,325)"/>
<path d="M0 0 C1.98 0.99 3.96 1.98 6 3 C6 3.66 6 4.32 6 5 C4.125 5.625 4.125 5.625 2 6 C1.34 5.34 0.68 4.68 0 4 C0 2.68 0 1.36 0 0 Z " fill="#1B1B1B" transform="translate(615,297)"/>
<path d="M0 0 C2.64 0.33 5.28 0.66 8 1 C4.46588679 3.12046792 1.05606165 3.53199289 -3 4 C-3 3.34 -3 2.68 -3 2 C-2.01 2 -1.02 2 0 2 C0 1.34 0 0.68 0 0 Z " fill="#252525" transform="translate(434,212)"/>
<path d="M0 0 C0.928125 0.0825 1.85625 0.165 2.8125 0.25 C2.8125 1.24 2.8125 2.23 2.8125 3.25 C-1.6425 3.745 -1.6425 3.745 -6.1875 4.25 C-4.36434338 1.00883268 -3.82500054 0.30000004 0 0 Z " fill="#E4E4E4" transform="translate(565.1875,808.75)"/>
<path d="M0 0 C2.97 0.33 5.94 0.66 9 1 C9 1.66 9 2.32 9 3 C9.66 3 10.32 3 11 3 C11 3.66 11 4.32 11 5 C7.27566618 3.7874262 3.62197194 2.49140021 0 1 C0 0.67 0 0.34 0 0 Z " fill="#181818" transform="translate(409,724)"/>
<path d="M0 0 C0.433125 0.66 0.86625 1.32 1.3125 2 C2.1478125 2.99 2.1478125 2.99 3 4 C3.99 4 4.98 4 6 4 C5.67 4.99 5.34 5.98 5 7 C3.35 7 1.7 7 0 7 C-0.93423645 3.98968256 -1.04449911 3.13349732 0 0 Z " fill="#1A1A18" transform="translate(800,609)"/>
<path d="M0 0 C0.33 0 0.66 0 1 0 C1.24954005 1.43410368 1.47392642 2.87260072 1.6875 4.3125 C1.87892578 5.51326172 1.87892578 5.51326172 2.07421875 6.73828125 C2 9 2 9 -1 12 C-0.67 8.04 -0.34 4.08 0 0 Z " fill="#D7D7D7" transform="translate(213,453)"/>
<path d="M0 0 C1.65 0 3.3 0 5 0 C5.33 0.66 5.66 1.32 6 2 C5.34 2 4.68 2 4 2 C4 2.66 4 3.32 4 4 C2.68 4.33 1.36 4.66 0 5 C0 3.35 0 1.7 0 0 Z " fill="#191919" transform="translate(690,360)"/>
<path d="M0 0 C0 0.99 0 1.98 0 3 C-0.99 3.33 -1.98 3.66 -3 4 C-3 4.66 -3 5.32 -3 6 C-3.66 6 -4.32 6 -5 6 C-5.33 5.01 -5.66 4.02 -6 3 C-3.375 0 -3.375 0 0 0 Z " fill="#191919" transform="translate(363,328)"/>
<path d="M0 0 C2.31 0.66 4.62 1.32 7 2 C6.67 2.99 6.34 3.98 6 5 C4.68 5 3.36 5 2 5 C2 4.01 2 3.02 2 2 C1.34 2 0.68 2 0 2 C0 1.34 0 0.68 0 0 Z " fill="#E7E7E7" transform="translate(414,727)"/>
<path d="M0 0 C1.65 0 3.3 0 5 0 C5.33 0.99 5.66 1.98 6 3 C5.01 3.66 4.02 4.32 3 5 C1.5 3.625 1.5 3.625 0 2 C0 1.34 0 0.68 0 0 Z " fill="#E6E6E6" transform="translate(732,714)"/>
<path d="M0 0 C0.91058531 3.07322544 1.08886184 5.80097361 1 9 C0.01 9.495 0.01 9.495 -1 10 C-2.25 3.375 -2.25 3.375 0 0 Z " fill="#DADADA" transform="translate(215,562)"/>
<path d="M0 0 C-0.33 1.65 -0.66 3.3 -1 5 C-5 5 -5 5 -7 4 C-3.17391304 0 -3.17391304 0 0 0 Z " fill="#F4F4F3" transform="translate(375,238)"/>
<path d="M0 0 C1.65 0 3.3 0 5 0 C5 0.33 5 0.66 5 1 C6.65 1.33 8.3 1.66 10 2 C10 2.33 10 2.66 10 3 C6.7 3 3.4 3 0 3 C0 2.01 0 1.02 0 0 Z " fill="#E6E6E6" transform="translate(528,813)"/>
<path d="M0 0 C1.65 0.33 3.3 0.66 5 1 C5 1.99 5 2.98 5 4 C2.03 3.505 2.03 3.505 -1 3 C-0.67 2.01 -0.34 1.02 0 0 Z M-1 4 C2 5 2 5 2 5 Z " fill="#1A1A1A" transform="translate(395,793)"/>
<path d="M0 0 C0.86625 0.556875 0.86625 0.556875 1.75 1.125 C-0.625 2.6875 -0.625 2.6875 -3.25 4.125 C-5.25 3.125 -5.25 3.125 -6.25 1.125 C-2.80384615 -1.09038462 -2.80384615 -1.09038462 0 0 Z " fill="#1D1D1C" transform="translate(657.25,781.875)"/>
<path d="M0 0 C1.32 0.33 2.64 0.66 4 1 C2.35 2.65 0.7 4.3 -1 6 C-1.33 4.68 -1.66 3.36 -2 2 C-1.34 2 -0.68 2 0 2 C0 1.34 0 0.68 0 0 Z " fill="#202020" transform="translate(684,670)"/>
<path d="M0 0 C1.625 2.5 1.625 2.5 3 5 C2.01 5.33 1.02 5.66 0 6 C-0.33 4.68 -0.66 3.36 -1 2 C-2.32 2.33 -3.64 2.66 -5 3 C-2.25 0 -2.25 0 0 0 Z " fill="#E8E8E8" transform="translate(318,645)"/>
<path d="M0 0 C2.12508244 3.18762365 2.5020163 5.26512223 3 9 C2.34 9 1.68 9 1 9 C-1.125 2.25 -1.125 2.25 0 0 Z " fill="#232322" transform="translate(220,596)"/>
<path d="M0 0 C0.66 0.33 1.32 0.66 2 1 C2 1.66 2 2.32 2 3 C2.66 3.33 3.32 3.66 4 4 C3.01 4.99 2.02 5.98 1 7 C0.34 6.67 -0.32 6.34 -1 6 C-0.67 4.02 -0.34 2.04 0 0 Z " fill="#E3E3E3" transform="translate(739,579)"/>
<path d="M0 0 C0.33 0 0.66 0 1 0 C1.1875 2.875 1.1875 2.875 1 6 C0.01 6.66 -0.98 7.32 -2 8 C-2.125 5.125 -2.125 5.125 -2 2 C-1.34 1.34 -0.68 0.68 0 0 Z " fill="#E3E3E3" transform="translate(213,464)"/>
<path d="M0 0 C0.33 0 0.66 0 1 0 C1.25 6.625 1.25 6.625 -1 10 C-1 9.01 -1 8.02 -1 7 C-1.99 6.67 -2.98 6.34 -4 6 C-3.67 5.34 -3.34 4.68 -3 4 C-2.01 4.33 -1.02 4.66 0 5 C0 3.35 0 1.7 0 0 Z " fill="#181818" transform="translate(212,444)"/>
<path d="M0 0 C0.78375 0.04125 1.5675 0.0825 2.375 0.125 C2.375 0.785 2.375 1.445 2.375 2.125 C0.725 2.785 -0.925 3.445 -2.625 4.125 C-3.285 3.465 -3.945 2.805 -4.625 2.125 C-2.625 0.125 -2.625 0.125 0 0 Z " fill="#1D1D1C" transform="translate(737.625,344.875)"/>
<path d="M0 0 C0.33 0.66 0.66 1.32 1 2 C1.99 1.34 2.98 0.68 4 0 C4.99 0.33 5.98 0.66 7 1 C7 1.66 7 2.32 7 3 C4.1875 3.6875 4.1875 3.6875 1 4 C-0.875 2.5625 -0.875 2.5625 -2 1 C-1.34 0.67 -0.68 0.34 0 0 Z " fill="#171717" transform="translate(404,299)"/>
<path d="M0 0 C2.31 0.33 4.62 0.66 7 1 C7 1.99 7 2.98 7 4 C5.02 4 3.04 4 1 4 C0.67 2.68 0.34 1.36 0 0 Z " fill="#212120" transform="translate(549,276)"/>
<path d="M0 0 C2.7194239 1.81294927 4.74259377 3.66475218 7 6 C2.545 5.01 2.545 5.01 -2 4 C-1.34 2.68 -0.68 1.36 0 0 Z " fill="#1F1F1E" transform="translate(597,213)"/>
<path d="M0 0 C0 0.66 0 1.32 0 2 C-3.375 2.625 -3.375 2.625 -7 3 C-7.66 2.34 -8.32 1.68 -9 1 C-5.92677456 0.08941469 -3.19902639 -0.08886184 0 0 Z " fill="#1F1F1F" transform="translate(573,811)"/>
<path d="M0 0 C-2.31856917 1.54571278 -4.50638429 2.79618552 -7 4 C-7 3.34 -7 2.68 -7 2 C-7.66 1.67 -8.32 1.34 -9 1 C-3.375 -1.125 -3.375 -1.125 0 0 Z " fill="#D8D8D7" transform="translate(595,735)"/>
<path d="M0 0 C2.97 0.495 2.97 0.495 6 1 C5.34 2.32 4.68 3.64 4 5 C2.35 4.01 0.7 3.02 -1 2 C-0.67 1.34 -0.34 0.68 0 0 Z " fill="#E4E4E4" transform="translate(741,704)"/>
<path d="M0 0 C-1.36983503 3.16115776 -1.9890638 3.9927092 -5 6 C-5.33 4.68 -5.66 3.36 -6 2 C-2.25 0 -2.25 0 0 0 Z " fill="#202020" transform="translate(682,676)"/>
<path d="M0 0 C0.66 0.33 1.32 0.66 2 1 C2 1.66 2 2.32 2 3 C-0.64 3.66 -3.28 4.32 -6 5 C-3.375 1.125 -3.375 1.125 0 0 Z " fill="#E3E3E3" transform="translate(693,667)"/>
<path d="M0 0 C0.33 0 0.66 0 1 0 C1.66 2.64 2.32 5.28 3 8 C2.01 8 1.02 8 0 8 C-0.38063221 5.6739143 -0.71269945 3.33944736 -1 1 C-0.67 0.67 -0.34 0.34 0 0 Z " fill="#F8F8F7" transform="translate(220,587)"/>
<path d="M0 0 C-0.33 1.32 -0.66 2.64 -1 4 C-4 4 -4 4 -6 3 C-3.375 0 -3.375 0 0 0 Z " fill="#DEDEDE" transform="translate(721,356)"/>
<path d="M0 0 C1.485 0.99 1.485 0.99 3 2 C1.68 2.33 0.36 2.66 -1 3 C-0.67 2.01 -0.34 1.02 0 0 Z M-2 3 C-1.67 3.66 -1.34 4.32 -1 5 C-0.34 5.33 0.32 5.66 1 6 C0.01 6.33 -0.98 6.66 -2 7 C-2.66 6.34 -3.32 5.68 -4 5 C-3.34 4.34 -2.68 3.68 -2 3 Z " fill="#E1E1E0" transform="translate(272,322)"/>
<path d="M0 0 C0 0.66 0 1.32 0 2 C-2 4 -2 4 -4 5 C-4.66 4.67 -5.32 4.34 -6 4 C-6 3.01 -6 2.02 -6 1 C-3.92446352 0.4465236 -2.15634036 0 0 0 Z " fill="#E6E6E6" transform="translate(439,281)"/>
<path d="M0 0 C-0.66 0 -1.32 0 -2 0 C-1.67 0.99 -1.34 1.98 -1 3 C-3.31 2.67 -5.62 2.34 -8 2 C-6.14210462 -1.71579076 -3.44525918 -1.06921837 0 0 Z " fill="#232322" transform="translate(595,213)"/>
</svg>
