<svg version="1.1" xmlns="http://www.w3.org/2000/svg" width="1024" height="1024" viewBox="0 0 1024 1024">
  <!-- Black Background -->
  <rect width="1024" height="1024" fill="#000000"/>
  
  <!-- Title Text - Line 1 -->
  <text x="512" y="320" 
        font-family="Arial, Helvetica, sans-serif" 
        font-size="56" 
        font-weight="900" 
        fill="#FFFFFF" 
        text-anchor="middle"
        letter-spacing="8">
    TECHNO HOUSE &amp;
  </text>

  <!-- Title Text - Line 2 -->
  <text x="512" y="390" 
        font-family="Arial, Helvetica, sans-serif" 
        font-size="56" 
        font-weight="900" 
        fill="#FFFFFF" 
        text-anchor="middle"
        letter-spacing="8">
    TECHNO SET #2
  </text>
  
  <!-- Subtitle Line -->
  <line x1="312" y1="420" x2="712" y2="420" stroke="#FFFFFF" stroke-width="2" opacity="0.3"/>
  
  <!-- Logo (centered, scaled down, and shifted down slightly to accommodate 2 lines) -->
  <g transform="translate(420, 460) scale(0.18)">
    <path d="M0 0 C1.0729129 -0.00067474 2.14582581 -0.00134949 3.25125122 -0.00204468 C19.32275454 0.01401137 35.01046939 0.44357099 50.875 3.25 C51.92042969 3.43224121 52.96585938 3.61448242 54.04296875 3.80224609 C104.96431366 12.90512092 153.97333694 32.75999262 193.875 66.25 C194.83535156 67.02601563 195.79570313 67.80203125 196.78515625 68.6015625 C215.27479955 83.76335251 232.71186498 101.25273167 245.875 121.25 C236.48548298 129.73519878 236.48548298 129.73519878 231.9375 133.6875 C228.70940488 136.49822525 225.53761557 139.365799 222.375 142.25 C213.37757126 150.44738378 204.12380815 158.33915145 194.875 166.25 C190.69741209 164.69192526 188.40535985 161.61158875 185.6875 158.25 C184.70293136 157.06158082 183.71724206 155.87408923 182.73046875 154.6875 C182.24497559 154.10097656 181.75948242 153.51445312 181.25927734 152.91015625 C170.97563692 140.57704251 159.63239424 129.0187142 146.875 119.25 C146.33182129 118.83041016 145.78864258 118.41082031 145.22900391 117.97851562 C114.87741815 94.65078913 78.7558687 77.71945019 40.875 71.25 C40.15779785 71.11609863 39.4405957 70.98219727 38.70166016 70.84423828 C13.25641479 66.18303426 -13.6948237 66.81604481 -39.125 71.25 C-39.96514648 71.39453613 -40.80529297 71.53907227 -41.67089844 71.68798828 C-74.93384931 77.60766598 -107.83208464 91.32158407 -135.125 111.25 C-135.94653564 111.84844727 -135.94653564 111.84844727 -136.78466797 112.45898438 C-152.97332233 124.36677752 -167.5853577 137.50778718 -180.125 153.25 C-180.75921875 154.00539063 -181.3934375 154.76078125 -182.046875 155.5390625 C-211.4237119 190.86410191 -226.94402214 234.19618924 -233.125 279.25 C-233.26965698 280.24435059 -233.26965698 280.24435059 -233.41723633 281.25878906 C-241.17235029 340.74969039 -222.09318225 401.83110438 -186.125 449 C-173.2844385 465.30710286 -159.75849998 479.78599962 -143.125 492.25 C-141.89317722 493.18873392 -140.66140677 494.12753651 -139.4296875 495.06640625 C-99.20215914 525.43971673 -49.82931098 541.77450065 0.5 541.5625 C1.37796234 541.56100952 2.25592468 541.55951904 3.16049194 541.5579834 C16.61231318 541.51699273 29.64742019 540.85639252 42.875 538.25 C43.6911377 538.10014648 44.50727539 537.95029297 45.34814453 537.79589844 C56.46084892 535.75093506 67.19792374 532.93780594 77.875 529.25 C78.5040625 529.03649902 79.133125 528.82299805 79.78125 528.60302734 C113.26342033 517.11926042 141.93149815 497.92452105 167.75 474.0625 C168.65963501 473.2257373 168.65963501 473.2257373 169.58764648 472.37207031 C188.23037359 454.9288821 203.20425319 432.32749341 213.93505859 409.265625 C214.57217122 407.89939075 215.21865042 406.53749253 215.87353516 405.1796875 C229.63827899 376.63644061 235.63413102 346.11050593 236.4375 314.625 C236.48078915 313.03254306 236.52440637 311.440095 236.56835938 309.84765625 C236.6743542 305.98186282 236.77591325 302.11597641 236.875 298.25 C250.31038604 295.769384 263.7590937 293.36127751 277.21289062 290.98269653 C279.02679649 290.66134182 280.8404378 290.33849011 282.65380859 290.01412964 C285.23854771 289.55217664 287.82421058 289.09576879 290.41015625 288.640625 C291.18960098 288.50018265 291.96904572 288.3597403 292.77210999 288.21504211 C296.51305667 287.56248751 300.07446693 287.08240558 303.875 287.25 C303.92643602 293.63220711 303.96103602 300.01435927 303.98486328 306.39672852 C303.99481452 308.56016029 304.00838034 310.723579 304.02587891 312.88696289 C304.12797843 325.85059996 303.78526194 338.42185637 301.875 351.25 C301.7394873 352.27488525 301.60397461 353.29977051 301.46435547 354.35571289 C291.84410585 426.04829567 251.15135243 498.47087234 193.7109375 543.09765625 C192.77507812 543.80792969 191.83921875 544.51820313 190.875 545.25 C189.61591285 546.24709045 188.35821308 547.2459342 187.1015625 548.24609375 C165.51322847 565.2842947 141.43560779 579.06706443 115.875 589.25 C115.17052734 589.53149902 114.46605469 589.81299805 113.74023438 590.10302734 C94.08239825 597.85656806 73.73728744 603.83746377 52.875 607.25 C51.60994629 607.47429687 51.60994629 607.47429687 50.31933594 607.703125 C15.32408437 613.71044898 -23.46107039 612.88138979 -58.125 605.25 C-59.09291473 605.03926849 -59.09291473 605.03926849 -60.0803833 604.82427979 C-107.04590704 594.53708838 -152.12341014 574.22257681 -189.125 543.25 C-190.64480469 541.98929688 -190.64480469 541.98929688 -192.1953125 540.703125 C-208.60610033 527.01685136 -224.26576962 512.40346242 -237.125 495.25 C-237.62322266 494.59725098 -238.12144531 493.94450195 -238.63476562 493.27197266 C-247.22261066 482.00723591 -255.0163321 470.49886481 -262.125 458.25 C-262.75849365 457.17830566 -262.75849365 457.17830566 -263.40478516 456.08496094 C-298.40270811 396.73773393 -310.8086714 322.11097935 -299.125 254.25 C-298.98578125 253.39696289 -298.8465625 252.54392578 -298.703125 251.66503906 C-290.08750989 199.95140487 -267.52675829 152.20082901 -235.125 111.25 C-234.6913916 110.69924805 -234.2577832 110.14849609 -233.81103516 109.58105469 C-226.96944487 100.99867413 -219.2906029 93.21337905 -211.5625 85.4375 C-211.07953461 84.94917694 -210.59656921 84.46085388 -210.09896851 83.95773315 C-203.45503469 77.25796678 -196.50746666 71.12691492 -189.125 65.25 C-187.66441233 64.02351296 -186.20571895 62.79476179 -184.75 61.5625 C-171.5670428 51.06651497 -157.01005779 42.11008376 -142.125 34.25 C-141.21766113 33.76055908 -141.21766113 33.76055908 -140.29199219 33.26123047 C-96.97007762 9.98292171 -48.84785431 0.02756308 0 0 Z " fill="#EEEEEE" transform="translate(511.125,205.75)"/>
  </g>
</svg>
